<svg width="551" height="550" xmlns="http://www.w3.org/2000/svg" xmlns:xlink="http://www.w3.org/1999/xlink" xml:space="preserve" overflow="hidden"><defs><clipPath id="clip0"><rect x="278" y="72" width="551" height="550"/></clipPath><clipPath id="clip1"><rect x="278" y="72" width="551" height="550"/></clipPath><clipPath id="clip2"><rect x="279" y="72" width="550" height="550"/></clipPath><linearGradient x1="484.369" y1="846.967" x2="968.74" y2="846.967" gradientUnits="userSpaceOnUse" spreadMethod="pad" id="fill3"><stop offset="0" stop-color="#E74A21" stop-opacity="1"/><stop offset="0.3" stop-color="#E74A21" stop-opacity="1"/><stop offset="0.7011" stop-color="#EC9A1E" stop-opacity="1"/><stop offset="1" stop-color="#EC9A1E" stop-opacity="1"/></linearGradient></defs><g clip-path="url(#clip0)" transform="translate(-278 -72)"><g clip-path="url(#clip1)"><g clip-path="url(#clip2)"><path d="M3524.73 700.009 3533.43 794.113 3516.55 794.113 3489.95 729.672 3401.49 729.672 3401.49 1050.85 3454.67 1063.13 3454.67 1082.05 3286.92 1082.05 3286.92 1063.13 3340.1 1050.85 3340.1 729.672 3251.62 729.672 3225.04 794.113 3208.16 794.113 3216.86 700.009 3524.73 700.009ZM2779.04 1063.13 2779.04 1082.05 2615.39 1082.05 2615.39 1063.13 2668.57 1051.37 2632.27 951.636 2490.09 951.636 2452.75 1052.39 2500.82 1063.13 2500.82 1082.05 2376.04 1082.05 2376.04 1063.13 2421.55 1050.34 2423.09 1045.74 2553 700.009 2597.49 688.757 2733.53 1050.34 2779.04 1063.13ZM2621.52 921.972 2561.68 758.823 2501.34 921.972 2621.52 921.972ZM3863.91 1069.78C3894.1 1084.1 3936.54 1093.81 3973.37 1093.81 4055.7 1093.81 4114.52 1048.81 4114.52 984.878 4114.52 934.246 4091 904.071 4023.99 868.782L3978.99 845.255C3935.51 822.241 3917.62 802.806 3917.62 772.12 3917.62 734.786 3948.31 713.306 3991.26 713.306 4008.14 713.306 4026.04 716.886 4043.94 724.557L4075.14 791.555 4091.51 791.555 4082.3 702.565C4060.82 694.894 4019.39 688.245 3992.8 688.245 3914.55 688.245 3865.96 727.626 3865.96 791.555 3865.96 834.516 3895.63 870.828 3956.49 902.537L3994.84 922.483C4038.32 944.986 4056.73 968.512 4056.73 1000.73 4056.73 1044.2 4018.88 1069.26 3970.81 1069.26 3947.79 1069.26 3925.81 1062.1 3898.69 1045.23L3869.03 977.206 3853.18 977.206 3863.91 1069.78M3776.03 1082.05 3776.03 1063.13 3722.34 1050.85 3722.34 731.205 3776.03 718.93 3776.03 700.007 3608.28 700.007 3608.28 718.93 3661.99 731.205 3661.99 1050.85 3608.28 1063.13 3608.28 1082.05 3776.03 1082.05ZM3198.49 1063.64 3198.49 1082.05 3098.26 1082.05 2984.71 906.629 2940.22 906.629 2940.22 1050.85 2991.87 1063.13 2991.87 1082.05 2834.87 1082.05 2834.87 1063.13 2879.36 1050.85 2879.36 731.205 2834.87 718.93 2834.87 700.007C2843.56 700.007 2911.06 697.962 2978.07 697.962 3087 697.962 3130.99 742.457 3130.99 800.761 3130.99 872.361 3055.29 891.796 3042 895.377L3143.77 1049.83 3198.49 1063.64ZM3069.11 804.852C3069.11 738.366 3022.04 727.115 2940.22 727.115L2940.22 879.012 2964.77 879.012C3028.7 879.012 3069.11 853.951 3069.11 804.852ZM2234.03 1088.7 2367.51 731.717 2409.45 718.931 2409.45 700.009 2294.9 700.009 2294.9 718.931 2336.82 729.671 2233.52 1009.43 2130.72 730.694 2177.26 718.931 2177.26 700.009 2022.3 700.009 2022.3 718.931 2064.74 731.717 2199.76 1088.7 2234.03 1088.7ZM2000.52 881.045C2000.52 1016.58 1906.4 1093.8 1802.58 1093.8 1697.73 1093.8 1605.17 1014.53 1605.17 891.274 1605.17 766.995 1698.76 688.233 1802.07 688.233 1928.9 688.233 2000.52 786.429 2000.52 881.045ZM1934.02 901.003C1934.02 801.785 1875.2 711.26 1794.4 711.26 1708.48 711.26 1670.63 788.998 1670.63 877.476 1670.63 965.954 1719.22 1071.31 1811.27 1071.31 1897.71 1071.31 1934.02 988.458 1934.02 901.003ZM1544.89 718.931 1544.89 700.009 1426.75 700.009 1426.75 718.931 1473.29 729.671 1473.29 974.138 1262.58 700.009 1162.85 700.009 1162.85 718.931C1166.94 719.442 1172.05 720.466 1174.61 720.977 1185.35 723.534 1202.23 730.182 1210.92 737.342L1210.92 1050.85 1168.99 1063.13 1168.99 1082.05 1286.62 1082.05 1286.62 1063.13 1240.08 1052.39 1240.08 769.564 1487.61 1088.19 1505 1088.19C1503.97 1081.03 1502.95 1037.05 1502.95 1017.1L1502.95 731.206 1544.89 718.931Z" fill="#0460A9" fill-rule="nonzero" fill-opacity="1" transform="matrix(1 0 0 1.00068 -173.758 -473.452)"/><path d="M818.871 791.555 817.491 795.016C840.207 804.979 891.019 844.53 891.019 924.07 891.019 998.962 827.832 1074.54 728.589 1074.54 605.039 1074.54 562.461 1002.36 562.461 936.004 562.461 851.004 621.902 794.337 621.902 716.918 621.902 663.011 581.123 609.797 526.529 600.123L524.46 603.583C547.255 627.765 554.861 651.27 554.861 676.153 554.861 759.772 484.37 819.207 484.37 915.268 484.37 1003.74 546.237 1093.81 725.146 1093.81 884.629 1093.81 968.741 1015.74 968.741 932.55 968.74 861.372 917.584 801.051 818.871 791.555Z" fill="url(#fill3)" fill-rule="nonzero" transform="matrix(1 0 0 1.00068 -173.758 -473.452)"/><path d="M727.226 974.709 772.15 546.907 678.158 546.907 723.082 974.709Z" fill="#0460A9" fill-rule="nonzero" fill-opacity="1" transform="matrix(1 0 0 1.00068 -173.758 -473.452)"/></g></g></g></svg>
